<?xml version="1.0" encoding="UTF-8"?> <svg xmlns="http://www.w3.org/2000/svg" width="177" height="24" viewBox="0 0 177 24" fill="none"><g clip-path="url(#clip0_404_1249)"><path d="M0 23.7194H4.18863L7.47763 15.8935H3.289L0 23.7194ZM14.9649 8.04827L8.38694 23.7194H12.5756L19.1536 8.04827H14.9649ZM26.6312 0.222391L16.7642 23.7194H20.9625L30.8295 0.222391H26.6312ZM52.3531 0.3288H43.6469V23.6613H52.3531C59.6759 23.6613 64.7352 18.5634 64.7352 11.966C64.7352 5.3687 59.6759 0.3288 52.3531 0.3288ZM52.3531 19.9274H47.7678V4.06278H52.3531C53.421 4.00241 54.4898 4.16633 55.4905 4.54399C56.4912 4.92164 57.4018 5.50467 58.1636 6.25553C58.9254 7.00639 59.5215 7.90844 59.9136 8.90363C60.3057 9.89881 60.4851 10.9651 60.4401 12.0338C60.4401 16.6287 57.2479 19.9274 52.3531 19.9274ZM100.189 10.1281C95.7678 9.06399 94.6651 8.26109 94.6651 6.43279C94.6651 4.86568 96.058 3.63714 98.4571 3.63714C100.769 3.72152 102.989 4.56458 104.774 6.03618L106.97 2.90196C104.59 0.959672 101.596 -0.069429 98.5248 -9.97346e-05C93.9008 -9.97346e-05 90.5732 2.73751 90.5732 6.77136C90.5732 11.1051 93.3688 12.5755 98.312 13.7653C102.636 14.7327 103.565 15.7 103.565 17.3735C103.565 19.0471 101.978 20.3336 99.4438 20.3336C96.6952 20.3062 94.0626 19.222 92.0919 17.3058L89.6252 20.2079C92.2728 22.6127 95.7219 23.944 99.2987 23.9419C104.184 23.9419 107.618 21.3397 107.618 16.9382C107.676 13.0978 105.112 11.3373 100.189 10.1281ZM109.649 4.13049H117.03V23.6613H121.161V4.13049H128.542V0.3288H109.649V4.13049ZM150.907 7.73872C150.907 3.16314 147.56 0.3288 142.201 0.3288H131.831V23.6613H135.923V15.5356H141.04L146.767 23.6613H151.603L145.316 14.8294C148.566 13.9298 150.907 11.6081 150.907 7.73872ZM135.923 11.8983V4.06278H141.872C144.9 4.06278 146.709 5.39772 146.709 7.93219C146.709 10.3312 144.842 11.8596 141.872 11.8596L135.923 11.8983ZM29.7751 5.20425L33.8476 14.8971H25.7025L24.1064 18.6988H35.4438L37.5429 23.7194H41.7412L31.8742 0.222391L29.7751 5.20425ZM74.2152 0.222391L64.3482 23.7194H68.5369L70.6167 18.6988H81.9831L84.0822 23.7194H88.2805L78.4135 0.222391H74.2152ZM72.2805 14.9068L76.3531 5.23327L80.4256 14.9068H72.2805ZM166.665 0.222391H162.515L152.648 23.7194H156.837L158.946 18.6988H170.254L172.363 23.7194H176.551L166.665 0.222391ZM160.503 14.9068L164.576 5.23327L168.638 14.9068H160.503Z" fill="#F9423A"></path></g><defs><clipPath id="clip0_404_1249"><rect width="176.532" height="24" fill="white"></rect></clipPath></defs></svg> 