<svg width="126" height="36" viewBox="0 0 126 36" fill="none" xmlns="http://www.w3.org/2000/svg">
<circle cx="15.3725" cy="18.0424" r="9.05024" stroke="white" stroke-width="3"/>
<path fill-rule="evenodd" clip-rule="evenodd" d="M2.17969 7.59916L15.3552 2.33149L28.5302 7.59916V18.789C27.8141 22.2576 26.2163 25.4669 23.9009 28.0873C21.5855 30.7077 18.6359 32.6446 15.3552 33.6992C12.0744 32.6447 9.12479 30.7077 6.80928 28.0874C4.49376 25.467 2.89585 22.2577 2.17969 18.789V7.59916ZM15.0475 35.9542C15.2485 36.0153 15.4623 36.0153 15.6633 35.9542C19.4094 34.8196 22.7862 32.6553 25.4326 29.693C28.0791 26.7306 29.8956 23.0816 30.6879 19.136C30.7028 19.0605 30.7103 18.9836 30.7104 18.9065V6.82861C30.7104 6.60166 30.6438 6.38004 30.5195 6.19284C30.3952 6.00564 30.219 5.86161 30.0139 5.77969L15.7491 0.0761476C15.4958 -0.0253825 15.2149 -0.0253825 14.9616 0.0761476L0.69618 5.77969C0.491184 5.86167 0.314999 6.00572 0.190756 6.19291C0.0665126 6.38011 1.82092e-05 6.6017 2.86689e-06 6.82861V18.9065C-0.000171328 18.9836 0.00759313 19.0606 0.0231656 19.136C0.81514 23.0817 2.63149 26.7309 5.27792 29.6933C7.92435 32.6557 11.3013 34.8198 15.0475 35.9542Z" fill="white"/>
<path fill-rule="evenodd" clip-rule="evenodd" d="M15.4158 16.9297C14.779 16.9297 14.2627 17.446 14.2627 18.0828C14.2627 18.7196 14.779 19.2359 15.4158 19.2359C16.0527 19.2359 16.5689 18.7196 16.5689 18.0828C16.5689 17.446 16.0527 16.9297 15.4158 16.9297ZM12.2627 18.0828C12.2627 16.3414 13.6744 14.9297 15.4158 14.9297C17.1572 14.9297 18.5689 16.3414 18.5689 18.0828C18.5689 18.4603 18.5026 18.8223 18.3809 19.1578L24.2461 24.2549C24.8134 23.9633 25.4566 23.7986 26.1383 23.7986C28.4267 23.7986 30.2819 25.6538 30.2819 27.9422C30.2819 30.2306 28.4267 32.0857 26.1383 32.0857C23.8499 32.0857 21.9948 30.2306 21.9948 27.9422C21.9948 27.067 22.2661 26.2553 22.7292 25.5864L17.1361 20.7257C16.6414 21.0484 16.0505 21.2359 15.4158 21.2359C13.6744 21.2359 12.2627 19.8242 12.2627 18.0828ZM26.1383 25.7986C24.9545 25.7986 23.9948 26.7583 23.9948 27.9422C23.9948 29.126 24.9545 30.0857 26.1383 30.0857C27.3222 30.0857 28.2819 29.126 28.2819 27.9422C28.2819 26.7583 27.3222 25.7986 26.1383 25.7986Z" fill="white"/>
<circle cx="26.1386" cy="27.9471" r="2.62679" fill="white" stroke="#6863F9"/>
<path d="M56.6334 10.8576C56.2517 10.9781 55.4682 11.4199 54.9057 11.8416L53.8611 12.6247L53.8008 11.8817C53.7406 11.1588 53.7205 11.1388 52.8567 11.0785C51.6714 10.9982 50.5264 11.7412 50.2251 12.7853C50.0844 13.2874 50.0242 15.456 50.0643 18.9701L50.1246 24.3918L51.2697 24.452C52.2942 24.5123 52.4697 24.4359 53.0724 23.8937L53.7406 23.3275L53.841 19.7331C53.9415 15.9982 54.0017 15.7372 54.9459 14.8536C55.4079 14.4319 55.6691 14.3516 56.7539 14.3516C57.7382 14.3516 58.1199 14.4319 58.4614 14.7532C59.3453 15.5364 59.4659 16.199 59.4659 20.4761V24.4922H61.3743H63.2827V19.9139C63.2827 14.4922 63.122 13.689 61.8162 12.3637C61.3542 11.9018 60.631 11.3596 60.2092 11.1588C59.265 10.7372 57.6177 10.5765 56.6334 10.8576Z" fill="white"/>
<path d="M70.8155 10.9204C68.7865 11.5027 66.9584 12.9886 66.0946 14.7557C65.6928 15.5991 65.6125 16.081 65.6125 17.7678C65.5924 19.6553 65.6326 19.8561 66.2754 21.1413C67.0589 22.7075 67.9227 23.5308 69.5097 24.2738C70.474 24.7356 70.8757 24.9297 72.7239 24.9297C74.5721 24.9297 74.9738 24.7356 75.9381 24.2738C77.5251 23.5308 78.3688 22.7075 79.1724 21.1613C79.8152 19.8963 79.8554 19.6553 79.8554 17.8882C79.8554 16.2216 79.775 15.7999 79.3331 14.8561C77.8465 11.7236 74.0498 9.97658 70.8155 10.9204ZM74.6323 14.8762C76.0787 15.8601 76.6211 18.3099 75.6769 19.6955C74.9337 20.7999 74.0498 21.2818 72.7239 21.2818C71.4784 21.2818 70.5945 20.84 69.8713 19.8561C69.0276 18.7316 69.0677 16.8441 69.9517 15.5991C70.9159 14.2537 73.1859 13.8922 74.6323 14.8762Z" fill="white"/>
<path d="M86.987 10.9202C85.8419 11.2214 84.7169 11.884 83.7125 12.8278C80.3175 16.0005 81.3621 22.2455 85.6209 24.2134C86.766 24.7354 86.987 25.0156 88.8954 25.0156C90.7837 25.0156 91.2257 24.7354 92.2301 24.2535C93.7368 23.5105 94.6609 22.5668 95.4644 20.9403C96.0671 19.7154 96.1273 19.4142 96.1072 17.868C96.1072 16.4824 96.0068 15.9603 95.5849 15.0567C94.0783 11.7635 90.402 9.99647 86.987 10.9202ZM90.9444 14.9764C92.4511 16.121 92.7926 18.2696 91.748 19.8559C91.1252 20.7796 90.1409 21.2816 88.8954 21.2816C86.6655 21.2816 85.1991 19.4342 85.5406 17.0045C85.6209 16.4021 85.862 15.9804 86.4847 15.3378C87.449 14.3941 87.8508 14.2535 89.2771 14.3539C89.94 14.4141 90.4623 14.615 90.9444 14.9764Z" fill="white"/>
<path d="M104.906 10.9204C104.444 11.081 103.741 11.4425 103.359 11.7236C102.496 12.3862 102.295 12.3862 102.214 11.6834C102.154 11.2015 102.074 11.1413 101.29 11.081C100.668 11.0409 100.226 11.1413 99.7033 11.4625C98.4177 12.2658 98.4177 12.2858 98.5784 21.6834L98.6989 30.1172H99.6832C101.913 30.1172 102.455 29.2537 102.455 25.7999C102.455 24.5349 102.516 23.4907 102.576 23.4907C102.636 23.4907 102.958 23.6714 103.259 23.8923C105.348 25.3782 108.562 25.1573 110.612 23.4104C111.616 22.567 112.58 20.7597 112.902 19.2136C113.384 16.8642 112.54 14.2939 110.752 12.6272C108.984 10.9806 106.754 10.318 104.906 10.9204ZM107.699 14.9364C108.643 15.5589 109.085 16.5429 109.085 17.9485C109.085 19.9967 107.779 21.2818 105.73 21.2818C103.922 21.2818 102.616 20.1774 102.355 18.3903C102.094 16.6834 103.078 14.9164 104.565 14.4545C105.469 14.1734 106.875 14.3943 107.699 14.9364Z" fill="white"/>
<path d="M40.4762 10.9191C37.685 11.8274 36.5599 14.444 37.9879 16.693C38.637 17.6878 39.1996 18.0338 42.4667 19.3097C43.6351 19.7638 43.765 19.8719 43.8299 20.4774C43.8731 20.8883 43.765 21.2559 43.5486 21.4289C43.0509 21.8398 41.0604 21.7749 40.2382 21.3424C39.3727 20.8883 38.3557 20.9099 37.5768 21.3641C36.3219 22.1209 36.5599 22.8562 38.4207 23.8726C40.4112 24.9322 42.9644 25.1052 45.0199 24.3051C46.1883 23.8293 47.4865 22.2723 47.6812 21.1046C48.0058 18.8988 46.8158 17.4932 43.6568 16.3686C41.558 15.6118 41.0604 15.2658 41.0604 14.617C41.0604 13.6871 42.2937 13.3844 44.1761 13.9034C45.3228 14.2061 46.2532 13.9034 46.9023 12.9951C47.3134 12.4329 47.3134 12.3896 46.9456 12.0652C45.6906 10.9191 42.2937 10.3136 40.4762 10.9191Z" fill="white"/>
<path d="M118.681 11.2394C115.89 12.1477 114.765 14.7643 116.193 17.0133C116.842 18.0081 117.405 18.3541 120.672 19.63C121.84 20.0841 121.97 20.1922 122.035 20.7977C122.078 21.2086 121.97 21.5763 121.754 21.7493C121.256 22.1601 119.265 22.0953 118.443 21.6628C117.578 21.2086 116.561 21.2302 115.782 21.6844C114.527 22.4413 114.765 23.1765 116.626 24.1929C118.616 25.2525 121.169 25.4255 123.225 24.6254C124.393 24.1496 125.691 22.5926 125.886 21.4249C126.211 19.2191 125.021 17.8135 121.862 16.689C119.763 15.9321 119.265 15.5861 119.265 14.9373C119.265 14.0074 120.499 13.7047 122.381 14.2237C123.528 14.5264 124.458 14.2237 125.107 13.3154C125.518 12.7532 125.518 12.7099 125.151 12.3855C123.896 11.2394 120.499 10.6339 118.681 11.2394Z" fill="white"/>
</svg>
