<svg width="1846" height="601" viewBox="0 0 1846 601" fill="none" xmlns="http://www.w3.org/2000/svg">
<path d="M421.772 400.18C412.172 400.18 403.227 402.865 395.594 407.459L392.97 404.834C417.598 375.54 432.387 337.714 432.387 296.428C432.387 203.295 356.893 127.763 263.807 127.763C170.721 127.763 95.2266 203.295 95.2266 296.428C95.2266 389.561 170.721 465.093 263.807 465.093C305.967 465.093 344.549 449.581 374.067 423.986L376.989 426.909C373.172 434.068 370.966 442.183 370.966 450.834C370.966 478.875 393.686 501.546 421.653 501.546C449.621 501.546 472.341 478.815 472.341 450.834C472.341 422.852 449.621 400.121 421.653 400.121L421.772 400.18ZM263.866 435.679C187.001 435.679 124.685 373.332 124.685 296.428C124.685 219.524 187.001 157.177 263.866 157.177C340.732 157.177 403.048 219.524 403.048 296.428C403.048 329.6 391.479 360.028 372.099 383.952L306.981 318.801C310.558 312.119 312.586 304.482 312.586 296.368C312.586 270.177 291.357 248.937 265.178 248.937C239 248.937 217.771 270.177 217.771 296.368C217.771 322.56 239 343.8 265.178 343.8C273.467 343.8 281.279 341.652 288.077 337.893L353.255 403.104C329.044 423.389 297.857 435.62 263.866 435.62V435.679ZM287.6 296.368C287.6 308.778 277.582 318.801 265.178 318.801C252.775 318.801 242.757 308.778 242.757 296.368C242.757 283.959 252.775 273.935 265.178 273.935C277.582 273.935 287.6 283.959 287.6 296.368Z" fill="url(#paint0_linear_10359_57713)"/>
<path d="M486.35 162.904C455.103 144.647 424.034 126.152 392.668 108.134C356.71 87.4911 319.797 68.2799 284.733 46.2049C271.972 38.1505 265.472 37.8522 252.353 46.0259C209.06 73.1722 164.157 97.6933 119.731 123.05C96.6535 136.235 73.3969 149.122 50.1404 161.949C43.4616 165.648 39.8836 170.362 40.0029 178.595C40.4203 202.281 40.1222 226.027 40.1222 249.772C40.1222 272.802 39.7644 295.891 40.301 318.92C40.5396 329.123 41.9708 339.385 43.7597 349.467C47.9936 373.571 57.7137 395.527 69.2227 417.065C82.0436 441.108 99.9929 460.678 121.103 476.727C141.914 492.537 164.455 506.2 186.877 519.684C210.491 533.883 234.762 546.889 259.032 559.896C262.014 561.507 267.38 561.268 270.422 559.657C290.1 549.276 309.66 538.596 328.921 527.38C330.114 526.664 331.306 526.008 332.499 525.292C333.691 524.576 334.884 523.92 336.017 523.204C337.15 522.488 338.402 521.772 339.535 521.115C340.668 520.459 341.861 519.684 343.054 518.968C349.136 515.269 355.159 511.391 361.301 507.751C365.953 505.007 370.544 502.203 375.136 499.339C379.728 496.475 384.26 493.552 388.792 490.568C391.058 489.077 393.324 487.585 395.59 486.094C398.691 484.065 401.732 481.977 404.773 479.889C405.429 479.412 406.204 478.934 406.443 478.159C406.383 478.397 408.053 478.875 408.232 478.934C408.828 479.173 409.365 479.412 409.961 479.65C411.213 480.128 412.525 480.545 413.837 480.784C414.672 480.963 415.566 481.142 416.461 481.261C417.355 481.38 418.25 481.5 419.144 481.5C420.039 481.5 420.933 481.5 421.828 481.5C422.722 481.5 423.617 481.38 424.511 481.261C425.406 481.142 426.3 481.022 427.195 480.784C428.089 480.545 428.984 480.366 429.878 480.068C430.773 479.77 431.667 479.471 432.502 479.113C432.86 478.934 433.218 478.815 433.635 478.636C448.901 471.477 455.52 453.339 448.424 438.006C441.268 422.733 423.14 416.11 407.814 423.21C395.709 428.818 389.09 441.347 390.342 453.936C383.127 459.902 376.328 464.914 370.485 468.971C369.948 469.567 369.352 470.045 368.755 470.462C365.953 472.252 363.15 473.982 360.347 475.653C354.682 479.173 351.283 480.963 351.283 480.963C344.545 484.841 337.746 488.6 331.008 492.537C313.595 502.68 295.944 512.464 279.009 523.263C270.124 528.931 263.325 530.96 253.188 524.576C218.005 502.62 181.57 482.633 146.506 460.499C114.782 440.512 95.5205 409.965 81.1491 376.136C70.4153 350.959 67.1355 324.409 67.7319 297.263C68.03 283.6 67.7319 269.878 67.7319 256.156C67.7319 236.109 67.7319 216.063 67.7319 196.016C67.7319 188.559 69.6401 183.01 77.0345 179.013C105.3 163.62 133.387 147.869 161.235 131.76C181.331 120.186 200.95 107.657 220.927 95.9035C234.642 87.7894 248.537 79.9737 262.729 72.6949C265.89 71.084 271.376 71.2033 274.477 72.8739C296.6 84.9853 318.426 97.6933 340.251 110.282C378.177 132.178 415.924 154.372 453.97 176.089C462.318 180.862 465.896 186.65 465.658 196.792C464.942 231.515 465.24 266.239 465.419 301.022C465.538 323.693 461.96 345.53 454.745 366.65C454.745 366.65 454.745 366.65 454.745 366.71C450.511 379.299 444.965 391.529 437.034 402.268C441.745 403.7 446.098 405.848 450.213 408.652C453.671 411.039 458.323 414.797 461.066 418.616C471.8 401.135 480.744 382.401 486.231 362.593C492.015 341.711 492.671 320.412 493.327 298.874C493.983 277.336 494.162 254.605 494.341 232.41C494.46 214.333 494.579 196.315 494.877 178.237C494.997 171.018 492.492 166.185 486.41 162.606L486.35 162.904Z" fill="url(#paint1_linear_10359_57713)"/>
<path d="M1476 365.994C1474.33 367.247 1475.17 370.349 1475.23 372.079C1476.06 408.533 1484.59 472.073 1430.21 461.99C1418.64 460.319 1421.68 444.509 1421.62 435.679C1421.62 426.73 1421.62 417.78 1421.62 408.831C1421.8 352.928 1420.84 296.965 1419.83 241.061C1419.59 230.382 1417.8 218.688 1421.32 208.426C1427.88 189.274 1448.1 179.49 1466.76 183.547C1471.47 184.561 1473.44 192.138 1474.21 196.255C1475.53 203.116 1481.31 198.045 1484.17 195.241C1505.76 174.12 1540.23 174.299 1566.17 185.695C1667.78 230.024 1631.29 406.206 1515.84 384.608C1504.81 382.401 1494.49 377.15 1485.19 370.707C1482.62 369.514 1478.93 364.741 1476 365.994ZM1522.99 332.881C1548.64 333.179 1569.8 309.673 1570.1 283.541C1571.36 241.777 1524.31 214.989 1491.69 240.464C1456.86 268.983 1475.88 336.103 1522.93 332.821L1522.99 332.881Z" fill="url(#paint2_linear_10359_57713)"/>
<path d="M1288.41 177.104C1369.57 176.567 1420.19 271.37 1375.35 342.01C1337.48 405.192 1235.69 397.376 1199.43 336.223C1158.59 269.162 1212.26 174.538 1288.41 177.104ZM1287.87 331.867C1368.61 329.123 1336.89 200.253 1264.61 237.184C1222.27 262.421 1238.55 331.271 1287.87 331.867Z" fill="url(#paint3_linear_10359_57713)"/>
<path d="M1055.46 386.637C935.479 389.322 914.191 210.574 1029.04 180.087C1180.99 147.034 1211.22 381.566 1055.46 386.637ZM1055.34 331.986C1094.16 334.134 1118.37 284.853 1095.89 252.815C1074.72 221.015 1027.97 225.072 1011.75 259.318C994.694 291.714 1021.05 333.418 1055.34 331.986Z" fill="url(#paint4_linear_10359_57713)"/>
<path d="M738.729 293.922C738.729 269.759 739.265 245.655 738.55 221.492C737.894 197.747 759.6 177.283 786.077 183.368C793.59 186.113 789.416 196.971 791.92 202.878C794.365 207.949 801.879 198.821 804.503 196.971C824.897 177.76 857.098 172.868 882.442 183.607C900.272 192.795 915.717 209.142 922.575 228.652C928.538 256.931 923.887 286.763 926.033 315.52C926.331 332.881 926.57 350.243 926.808 367.605C926.987 380.313 925.675 381.566 913.689 381.745C903.552 381.864 893.355 381.446 883.277 381.864C875.286 382.162 872.543 378.702 872.603 370.647C871.231 332.941 876.837 294.161 869.502 257.051C862.883 230.74 830.681 223.282 810.168 237.362C785.361 256.335 794.663 292.908 792.636 320.472C794.246 351.854 794.067 377.031 757.572 381.924C739.146 384.37 737.953 372.318 738.729 356.746C738.49 335.805 738.609 314.863 738.669 293.922H738.729Z" fill="url(#paint5_linear_10359_57713)"/>
<path d="M712.612 321.784C711.538 390.396 623.819 398.629 578.141 370.707C567.288 363.607 545.284 353.823 560.192 338.788C584.581 310.329 618.095 346.425 646.181 335.626C664.965 324.946 656.498 312.835 640.099 306.988C619.466 297.263 596.21 293.743 579.513 276.441C536.22 224.356 595.077 166.185 650.594 177.223C666.337 177.7 697.763 188.797 703.965 204.846C705.336 220.299 686.731 229.069 673.91 228.711C657.571 229.248 626.383 211.887 619.168 235.095C618.81 239.152 621.017 243.15 624.058 245.775C655.842 267.253 713.506 271.25 712.671 321.844L712.612 321.784Z" fill="url(#paint6_linear_10359_57713)"/>
<path d="M1805.21 329.789C1804.14 398.401 1716.42 406.634 1670.74 378.712C1659.89 371.612 1637.88 361.828 1652.79 346.793C1677.18 318.334 1710.69 354.43 1738.78 343.631C1757.56 332.951 1749.1 320.84 1732.7 314.993C1712.06 305.268 1688.81 301.748 1672.11 284.446C1628.82 232.361 1687.67 174.19 1743.19 185.228C1758.93 185.705 1790.36 196.802 1796.56 212.851C1797.93 228.304 1779.33 237.074 1766.51 236.716C1750.17 237.253 1718.98 219.892 1711.77 243.1C1711.41 247.157 1713.61 251.154 1716.66 253.78C1748.44 275.258 1806.1 279.255 1805.27 329.849L1805.21 329.789Z" fill="url(#paint7_linear_10359_57713)"/>
<path d="M421.469 482.036C438.693 482.036 452.657 468.066 452.657 450.833C452.657 433.6 438.693 419.63 421.469 419.63C404.244 419.63 390.281 433.6 390.281 450.833C390.281 468.066 404.244 482.036 421.469 482.036Z" fill="url(#paint8_linear_10359_57713)" stroke="url(#paint9_linear_10359_57713)" stroke-width="3" stroke-miterlimit="10"/>
<defs>
<linearGradient id="paint0_linear_10359_57713" x1="95.2266" y1="314.685" x2="472.52" y2="314.685" gradientUnits="userSpaceOnUse">
<stop stop-color="#0C23BB"/>
<stop offset="1" stop-color="#390982"/>
</linearGradient>
<linearGradient id="paint1_linear_10359_57713" x1="40.0029" y1="300.485" x2="494.818" y2="300.485" gradientUnits="userSpaceOnUse">
<stop stop-color="#3B2BC0"/>
<stop offset="0.16" stop-color="#2A25BD"/>
<stop offset="0.38" stop-color="#1B1FBA"/>
<stop offset="0.64" stop-color="#111CB9"/>
<stop offset="1" stop-color="#0F1BB9"/>
</linearGradient>
<linearGradient id="paint2_linear_10359_57713" x1="1522.34" y1="177.998" x2="1522.34" y2="463.064" gradientUnits="userSpaceOnUse">
<stop stop-color="#3B1795"/>
<stop offset="0.47" stop-color="#371798"/>
<stop offset="0.54" stop-color="#2A18A1"/>
<stop offset="0.66" stop-color="#1B19AE"/>
<stop offset="0.8" stop-color="#111AB6"/>
<stop offset="1" stop-color="#0F1BB9"/>
</linearGradient>
<linearGradient id="paint3_linear_10359_57713" x1="1288.76" y1="177.104" x2="1288.76" y2="385.862" gradientUnits="userSpaceOnUse">
<stop stop-color="#3B1795"/>
<stop offset="0.47" stop-color="#371798"/>
<stop offset="0.54" stop-color="#2A18A1"/>
<stop offset="0.66" stop-color="#1B19AE"/>
<stop offset="0.8" stop-color="#111AB6"/>
<stop offset="1" stop-color="#0F1BB9"/>
</linearGradient>
<linearGradient id="paint4_linear_10359_57713" x1="1055.94" y1="176.924" x2="1055.94" y2="386.637" gradientUnits="userSpaceOnUse">
<stop stop-color="#3B1795"/>
<stop offset="0.47" stop-color="#371798"/>
<stop offset="0.54" stop-color="#2A18A1"/>
<stop offset="0.66" stop-color="#1B19AE"/>
<stop offset="0.8" stop-color="#111AB6"/>
<stop offset="1" stop-color="#0F1BB9"/>
</linearGradient>
<linearGradient id="paint5_linear_10359_57713" x1="832.709" y1="178.058" x2="832.709" y2="382.222" gradientUnits="userSpaceOnUse">
<stop stop-color="#3B1795"/>
<stop offset="0.47" stop-color="#371798"/>
<stop offset="0.54" stop-color="#2A18A1"/>
<stop offset="0.66" stop-color="#1B19AE"/>
<stop offset="0.8" stop-color="#111AB6"/>
<stop offset="1" stop-color="#0F1BB9"/>
</linearGradient>
<linearGradient id="paint6_linear_10359_57713" x1="633.837" y1="175.791" x2="633.837" y2="385.682" gradientUnits="userSpaceOnUse">
<stop stop-color="#3B1795"/>
<stop offset="0.47" stop-color="#371798"/>
<stop offset="0.54" stop-color="#2A18A1"/>
<stop offset="0.66" stop-color="#1B19AE"/>
<stop offset="0.8" stop-color="#111AB6"/>
<stop offset="1" stop-color="#0F1BB9"/>
</linearGradient>
<linearGradient id="paint7_linear_10359_57713" x1="1726.44" y1="183.796" x2="1726.44" y2="393.687" gradientUnits="userSpaceOnUse">
<stop stop-color="#3B1795"/>
<stop offset="0.47" stop-color="#371798"/>
<stop offset="0.54" stop-color="#2A18A1"/>
<stop offset="0.66" stop-color="#1B19AE"/>
<stop offset="0.8" stop-color="#111AB6"/>
<stop offset="1" stop-color="#0F1BB9"/>
</linearGradient>
<linearGradient id="paint8_linear_10359_57713" x1="421.469" y1="419.689" x2="421.469" y2="482.036" gradientUnits="userSpaceOnUse">
<stop stop-color="#3B1795"/>
<stop offset="0.16" stop-color="#2A18A2"/>
<stop offset="0.38" stop-color="#1B19AF"/>
<stop offset="0.64" stop-color="#111AB6"/>
<stop offset="1" stop-color="#0F1BB9"/>
</linearGradient>
<linearGradient id="paint9_linear_10359_57713" x1="421.469" y1="419.272" x2="421.469" y2="482.454" gradientUnits="userSpaceOnUse">
<stop stop-color="white"/>
<stop offset="0.11" stop-color="white"/>
<stop offset="1" stop-color="white"/>
</linearGradient>
</defs>
</svg>
