<svg width="1766" height="521" viewBox="0 0 1766 521" fill="none" xmlns="http://www.w3.org/2000/svg">
<path d="M381.772 360.18C372.172 360.18 363.227 362.865 355.594 367.459L352.97 364.834C377.598 335.54 392.387 297.714 392.387 256.428C392.387 163.295 316.893 87.7632 223.807 87.7632C130.721 87.7632 55.2266 163.295 55.2266 256.428C55.2266 349.561 130.721 425.093 223.807 425.093C265.967 425.093 304.549 409.581 334.067 383.986L336.989 386.909C333.172 394.068 330.966 402.183 330.966 410.834C330.966 438.875 353.686 461.546 381.653 461.546C409.621 461.546 432.341 438.815 432.341 410.834C432.341 382.852 409.621 360.121 381.653 360.121L381.772 360.18ZM223.866 395.679C147.001 395.679 84.6849 333.332 84.6849 256.428C84.6849 179.524 147.001 117.177 223.866 117.177C300.732 117.177 363.048 179.524 363.048 256.428C363.048 289.6 351.479 320.028 332.099 343.952L266.981 278.801C270.558 272.119 272.586 264.482 272.586 256.368C272.586 230.177 251.357 208.937 225.178 208.937C199 208.937 177.771 230.177 177.771 256.368C177.771 282.56 199 303.8 225.178 303.8C233.467 303.8 241.279 301.652 248.077 297.893L313.255 363.104C289.044 383.389 257.857 395.62 223.866 395.62V395.679ZM247.6 256.368C247.6 268.778 237.582 278.801 225.178 278.801C212.775 278.801 202.757 268.778 202.757 256.368C202.757 243.959 212.775 233.935 225.178 233.935C237.582 233.935 247.6 243.959 247.6 256.368Z" fill="url(#paint0_linear_10360_57975)"/>
<path d="M446.35 122.904C415.103 104.647 384.034 86.1522 352.668 68.1342C316.71 47.4911 279.797 28.2799 244.733 6.20491C231.972 -1.84948 225.472 -2.14779 212.353 6.02592C169.06 33.1722 124.157 57.6933 79.7311 83.0497C56.6535 96.2351 33.3969 109.122 10.1404 121.949C3.46156 125.648 -0.116376 130.362 0.00288794 138.595C0.420313 162.281 0.122152 186.027 0.122152 209.772C0.122152 232.802 -0.235641 255.891 0.301049 278.92C0.539578 289.123 1.97075 299.385 3.75972 309.467C7.9936 333.571 17.7137 355.527 29.2227 377.065C42.0436 401.108 59.9929 420.678 81.1027 436.727C101.914 452.537 124.455 466.2 146.877 479.684C170.491 493.883 194.762 506.889 219.032 519.896C222.014 521.507 227.38 521.268 230.422 519.657C250.1 509.276 269.66 498.596 288.921 487.38C290.114 486.664 291.306 486.008 292.499 485.292C293.691 484.576 294.884 483.92 296.017 483.204C297.15 482.488 298.402 481.772 299.535 481.115C300.668 480.459 301.861 479.684 303.054 478.968C309.136 475.269 315.159 471.391 321.301 467.751C325.953 465.007 330.544 462.203 335.136 459.339C339.728 456.475 344.26 453.552 348.792 450.568C351.058 449.077 353.324 447.585 355.59 446.094C358.691 444.065 361.732 441.977 364.773 439.889C365.429 439.412 366.204 438.934 366.443 438.159C366.383 438.397 368.053 438.875 368.232 438.934C368.828 439.173 369.365 439.412 369.961 439.65C371.213 440.128 372.525 440.545 373.837 440.784C374.672 440.963 375.566 441.142 376.461 441.261C377.355 441.38 378.25 441.5 379.144 441.5C380.039 441.5 380.933 441.5 381.828 441.5C382.722 441.5 383.617 441.38 384.511 441.261C385.406 441.142 386.3 441.022 387.195 440.784C388.089 440.545 388.984 440.366 389.878 440.068C390.773 439.77 391.667 439.471 392.502 439.113C392.86 438.934 393.218 438.815 393.635 438.636C408.901 431.477 415.52 413.339 408.424 398.006C401.268 382.733 383.14 376.11 367.814 383.21C355.709 388.818 349.09 401.347 350.342 413.936C343.127 419.902 336.328 424.914 330.485 428.971C329.948 429.567 329.352 430.045 328.755 430.462C325.953 432.252 323.15 433.982 320.347 435.653C314.682 439.173 311.283 440.963 311.283 440.963C304.545 444.841 297.746 448.6 291.008 452.537C273.595 462.68 255.944 472.464 239.009 483.263C230.124 488.931 223.325 490.96 213.188 484.576C178.005 462.62 141.57 442.633 106.506 420.499C74.7817 400.512 55.5205 369.965 41.1491 336.136C30.4153 310.959 27.1355 284.409 27.7319 257.263C28.03 243.6 27.7319 229.878 27.7319 216.156C27.7319 196.109 27.7319 176.063 27.7319 156.016C27.7319 148.559 29.6401 143.01 37.0345 139.013C65.3001 123.62 93.3869 107.869 121.235 91.7604C141.331 80.1859 160.95 67.6569 180.927 55.9035C194.642 47.7894 208.537 39.9737 222.729 32.6949C225.89 31.084 231.376 31.2033 234.477 32.8739C256.6 44.9853 278.426 57.6933 300.251 70.282C338.177 92.178 375.924 114.372 413.97 136.089C422.318 140.862 425.896 146.65 425.658 156.792C424.942 191.515 425.24 226.239 425.419 261.022C425.538 283.693 421.96 305.53 414.745 326.65C414.745 326.65 414.745 326.65 414.745 326.71C410.511 339.299 404.965 351.529 397.034 362.268C401.745 363.7 406.098 365.848 410.213 368.652C413.671 371.039 418.323 374.797 421.066 378.616C431.8 361.135 440.744 342.401 446.231 322.593C452.015 301.711 452.671 280.412 453.327 258.874C453.983 237.336 454.162 214.605 454.341 192.41C454.46 174.333 454.579 156.315 454.877 138.237C454.997 131.018 452.492 126.185 446.41 122.606L446.35 122.904Z" fill="url(#paint1_linear_10360_57975)"/>
<path d="M1436 325.994C1434.33 327.247 1435.17 330.349 1435.23 332.079C1436.06 368.533 1444.59 432.073 1390.21 421.99C1378.64 420.319 1381.68 404.509 1381.62 395.679C1381.62 386.73 1381.62 377.78 1381.62 368.831C1381.8 312.928 1380.84 256.965 1379.83 201.061C1379.59 190.382 1377.8 178.688 1381.32 168.426C1387.88 149.274 1408.1 139.49 1426.76 143.547C1431.47 144.561 1433.44 152.138 1434.21 156.255C1435.53 163.116 1441.31 158.045 1444.17 155.241C1465.76 134.12 1500.23 134.299 1526.17 145.695C1627.78 190.024 1591.29 366.206 1475.84 344.608C1464.81 342.401 1454.49 337.15 1445.19 330.707C1442.62 329.514 1438.93 324.741 1436 325.994ZM1482.99 292.881C1508.64 293.179 1529.8 269.673 1530.1 243.541C1531.36 201.777 1484.31 174.989 1451.69 200.464C1416.86 228.983 1435.88 296.103 1482.93 292.821L1482.99 292.881Z" fill="url(#paint2_linear_10360_57975)"/>
<path d="M1248.41 137.104C1329.57 136.567 1380.19 231.37 1335.35 302.01C1297.48 365.192 1195.69 357.376 1159.43 296.223C1118.59 229.162 1172.26 134.538 1248.41 137.104ZM1247.87 291.867C1328.61 289.123 1296.89 160.253 1224.61 197.184C1182.27 222.421 1198.55 291.271 1247.87 291.867Z" fill="url(#paint3_linear_10360_57975)"/>
<path d="M1015.46 346.637C895.479 349.322 874.191 170.574 989.042 140.087C1140.99 107.034 1171.22 341.566 1015.46 346.637ZM1015.34 291.986C1054.16 294.134 1078.37 244.853 1055.89 212.815C1034.72 181.015 987.969 185.072 971.749 219.318C954.694 251.714 981.052 293.418 1015.34 291.986Z" fill="url(#paint4_linear_10360_57975)"/>
<path d="M698.729 253.922C698.729 229.759 699.265 205.655 698.55 181.492C697.894 157.747 719.6 137.283 746.077 143.368C753.59 146.113 749.416 156.971 751.92 162.878C754.365 167.949 761.879 158.821 764.503 156.971C784.897 137.76 817.098 132.868 842.442 143.607C860.272 152.795 875.717 169.142 882.575 188.652C888.538 216.931 883.887 246.763 886.033 275.52C886.331 292.881 886.57 310.243 886.808 327.605C886.987 340.313 885.675 341.566 873.689 341.745C863.552 341.864 853.355 341.446 843.277 341.864C835.286 342.162 832.543 338.702 832.603 330.647C831.231 292.941 836.837 254.161 829.502 217.051C822.883 190.74 790.681 183.282 770.168 197.362C745.361 216.335 754.663 252.908 752.636 280.472C754.246 311.854 754.067 337.031 717.572 341.924C699.146 344.37 697.953 332.318 698.729 316.746C698.49 295.805 698.609 274.863 698.669 253.922H698.729Z" fill="url(#paint5_linear_10360_57975)"/>
<path d="M672.612 281.784C671.538 350.396 583.819 358.629 538.141 330.707C527.288 323.607 505.284 313.823 520.192 298.788C544.581 270.329 578.095 306.425 606.181 295.626C624.965 284.946 616.498 272.835 600.099 266.988C579.466 257.263 556.21 253.743 539.513 236.441C496.22 184.356 555.077 126.185 610.594 137.223C626.337 137.7 657.763 148.797 663.965 164.846C665.336 180.299 646.731 189.069 633.91 188.711C617.571 189.248 586.383 171.887 579.168 195.095C578.81 199.152 581.017 203.15 584.058 205.775C615.842 227.253 673.506 231.25 672.671 281.844L672.612 281.784Z" fill="url(#paint6_linear_10360_57975)"/>
<path d="M1765.21 289.789C1764.14 358.401 1676.42 366.634 1630.74 338.712C1619.89 331.612 1597.88 321.828 1612.79 306.793C1637.18 278.334 1670.69 314.43 1698.78 303.631C1717.56 292.951 1709.1 280.84 1692.7 274.993C1672.06 265.268 1648.81 261.748 1632.11 244.446C1588.82 192.361 1647.67 134.19 1703.19 145.228C1718.93 145.705 1750.36 156.802 1756.56 172.851C1757.93 188.304 1739.33 197.074 1726.51 196.716C1710.17 197.253 1678.98 179.892 1671.77 203.1C1671.41 207.157 1673.61 211.154 1676.66 213.78C1708.44 235.258 1766.1 239.255 1765.27 289.849L1765.21 289.789Z" fill="url(#paint7_linear_10360_57975)"/>
<path d="M381.469 442.036C398.693 442.036 412.657 428.066 412.657 410.833C412.657 393.6 398.693 379.63 381.469 379.63C364.244 379.63 350.281 393.6 350.281 410.833C350.281 428.066 364.244 442.036 381.469 442.036Z" fill="url(#paint8_linear_10360_57975)" stroke="url(#paint9_linear_10360_57975)" stroke-width="3" stroke-miterlimit="10"/>
<defs>
<linearGradient id="paint0_linear_10360_57975" x1="55.2266" y1="274.685" x2="432.52" y2="274.685" gradientUnits="userSpaceOnUse">
<stop stop-color="#0C23BB"/>
<stop offset="1" stop-color="#390982"/>
</linearGradient>
<linearGradient id="paint1_linear_10360_57975" x1="0.00288794" y1="260.485" x2="454.818" y2="260.485" gradientUnits="userSpaceOnUse">
<stop stop-color="#3B2BC0"/>
<stop offset="0.16" stop-color="#2A25BD"/>
<stop offset="0.38" stop-color="#1B1FBA"/>
<stop offset="0.64" stop-color="#111CB9"/>
<stop offset="1" stop-color="#0F1BB9"/>
</linearGradient>
<linearGradient id="paint2_linear_10360_57975" x1="1482.34" y1="137.998" x2="1482.34" y2="423.064" gradientUnits="userSpaceOnUse">
<stop stop-color="#3B1795"/>
<stop offset="0.47" stop-color="#371798"/>
<stop offset="0.54" stop-color="#2A18A1"/>
<stop offset="0.66" stop-color="#1B19AE"/>
<stop offset="0.8" stop-color="#111AB6"/>
<stop offset="1" stop-color="#0F1BB9"/>
</linearGradient>
<linearGradient id="paint3_linear_10360_57975" x1="1248.76" y1="137.104" x2="1248.76" y2="345.862" gradientUnits="userSpaceOnUse">
<stop stop-color="#3B1795"/>
<stop offset="0.47" stop-color="#371798"/>
<stop offset="0.54" stop-color="#2A18A1"/>
<stop offset="0.66" stop-color="#1B19AE"/>
<stop offset="0.8" stop-color="#111AB6"/>
<stop offset="1" stop-color="#0F1BB9"/>
</linearGradient>
<linearGradient id="paint4_linear_10360_57975" x1="1015.94" y1="136.924" x2="1015.94" y2="346.637" gradientUnits="userSpaceOnUse">
<stop stop-color="#3B1795"/>
<stop offset="0.47" stop-color="#371798"/>
<stop offset="0.54" stop-color="#2A18A1"/>
<stop offset="0.66" stop-color="#1B19AE"/>
<stop offset="0.8" stop-color="#111AB6"/>
<stop offset="1" stop-color="#0F1BB9"/>
</linearGradient>
<linearGradient id="paint5_linear_10360_57975" x1="792.709" y1="138.058" x2="792.709" y2="342.222" gradientUnits="userSpaceOnUse">
<stop stop-color="#3B1795"/>
<stop offset="0.47" stop-color="#371798"/>
<stop offset="0.54" stop-color="#2A18A1"/>
<stop offset="0.66" stop-color="#1B19AE"/>
<stop offset="0.8" stop-color="#111AB6"/>
<stop offset="1" stop-color="#0F1BB9"/>
</linearGradient>
<linearGradient id="paint6_linear_10360_57975" x1="593.837" y1="135.791" x2="593.837" y2="345.682" gradientUnits="userSpaceOnUse">
<stop stop-color="#3B1795"/>
<stop offset="0.47" stop-color="#371798"/>
<stop offset="0.54" stop-color="#2A18A1"/>
<stop offset="0.66" stop-color="#1B19AE"/>
<stop offset="0.8" stop-color="#111AB6"/>
<stop offset="1" stop-color="#0F1BB9"/>
</linearGradient>
<linearGradient id="paint7_linear_10360_57975" x1="1686.44" y1="143.796" x2="1686.44" y2="353.687" gradientUnits="userSpaceOnUse">
<stop stop-color="#3B1795"/>
<stop offset="0.47" stop-color="#371798"/>
<stop offset="0.54" stop-color="#2A18A1"/>
<stop offset="0.66" stop-color="#1B19AE"/>
<stop offset="0.8" stop-color="#111AB6"/>
<stop offset="1" stop-color="#0F1BB9"/>
</linearGradient>
<linearGradient id="paint8_linear_10360_57975" x1="381.469" y1="379.689" x2="381.469" y2="442.036" gradientUnits="userSpaceOnUse">
<stop stop-color="#3B1795"/>
<stop offset="0.16" stop-color="#2A18A2"/>
<stop offset="0.38" stop-color="#1B19AF"/>
<stop offset="0.64" stop-color="#111AB6"/>
<stop offset="1" stop-color="#0F1BB9"/>
</linearGradient>
<linearGradient id="paint9_linear_10360_57975" x1="381.469" y1="379.272" x2="381.469" y2="442.454" gradientUnits="userSpaceOnUse">
<stop stop-color="white"/>
<stop offset="0.11" stop-color="white"/>
<stop offset="1" stop-color="white"/>
</linearGradient>
</defs>
</svg>
